<svg version="1.0" xmlns="http://www.w3.org/2000/svg" width="331.000000" height="309.000000" viewBox="0 0 331.000000 309.000000" preserveAspectRatio="xMidYMid meet"><g transform="translate(0.000000,309.000000) scale(0.100000,-0.100000)" fill="rgb(10,10,10)" stroke="none"><path d="M143 3080 c-83 -19 -143 -92 -143 -174 0 -79 68 -157 147 -172 57 -11 113 12 164 67 l47 49 186 0 185 0 172 -196 c155 -177 169 -197 156 -212 -25 -28 -56 -98 -63 -139 -5 -32 -13 -43 -47 -62 -22 -13 -62 -43 -87 -67 l-47 -44 -83 0 c-77 0 -85 2 -121 31 -35 28 -39 35 -39 77 0 152 -175 237 -286 140 -47 -41 -64 -77 -64 -133 0 -126 116 -206 240 -165 37 12 39 11 92 -29 50 -38 60 -41 116 -41 l62 0 -6 -62 c-4 -35 -22 -102 -40 -149 -19 -48 -37 -107 -40 -133 l-7 -46 -128 0 -128 0 -20 29 c-26 36 -96 71 -142 71 -19 0 -55 -10 -79 -22 -84 -43 -119 -137 -82 -220 35 -81 103 -117 194 -105 49 7 85 31 117 80 l24 37 122 0 122 0 6 -40 c3 -22 21 -72 41 -111 32 -62 35 -76 27 -103 -6 -17 -13 -55 -17 -83 l-7 -53 -94 0 -94 0 -62 -44 c-59 -41 -64 -43 -92 -30 -45 20 -95 17 -145 -8 -103 -52 -131 -181 -58 -264 41 -46 77 -64 132 -64 109 0 179 69 179 175 0 47 2 53 38 78 34 25 45 27 128 27 l91 0 14 -35 c31 -74 161 -165 236 -165 21 0 50 -25 50 -44 0 -7 16 -38 35 -70 41 -69 57 -39 -135 -260 l-135 -155 -147 0 -148 -1 -47 49 c-56 57 -101 74 -164 60 -56 -13 -95 -42 -119 -89 -51 -101 0 -218 109 -251 71 -21 154 12 192 76 l21 35 181 0 182 1 170 199 c134 158 174 199 190 196 11 -3 38 -9 60 -15 126 -33 279 15 362 114 l37 44 45 -46 c91 -92 227 -131 350 -99 36 9 68 13 71 9 4 -5 84 -97 179 -205 l172 -198 179 0 179 0 16 -29 c49 -95 184 -118 265 -45 49 45 64 81 58 148 -8 97 -72 156 -170 156 -62 0 -102 -21 -144 -74 l-29 -36 -150 1 -150 0 -150 176 c-82 96 -151 179 -153 184 -2 5 11 28 28 52 17 25 37 62 45 83 12 35 18 40 54 46 93 16 173 69 217 144 l26 44 95 0 c87 0 98 -2 134 -27 34 -24 39 -32 34 -57 -11 -63 34 -149 96 -181 15 -8 51 -15 79 -15 188 0 247 243 80 328 -51 25 -96 28 -145 8 -33 -14 -35 -14 -92 30 l-58 43 -96 1 -96 0 -7 60 c-4 33 -12 73 -18 90 -9 26 -6 39 21 93 17 34 36 82 43 107 l13 45 121 3 121 3 12 -30 c24 -56 96 -101 163 -101 76 0 157 68 173 147 13 66 -32 155 -96 188 -15 8 -52 15 -81 15 -60 0 -104 -22 -139 -69 l-23 -31 -126 0 -127 0 -6 50 c-3 28 -22 90 -40 138 -19 48 -37 113 -40 145 l-6 57 58 0 c52 0 63 4 118 45 l60 45 41 -16 c58 -23 122 -12 169 29 125 110 53 307 -112 307 -101 0 -175 -74 -175 -177 0 -49 -2 -53 -42 -82 -38 -28 -49 -31 -117 -31 l-74 0 -51 48 c-28 27 -70 60 -93 73 -35 20 -44 32 -53 69 -6 25 -22 65 -36 89 -13 24 -24 48 -24 53 0 5 73 95 162 199 l163 189 195 0 195 -1 26 -38 c32 -46 82 -71 144 -71 56 0 92 17 133 64 73 83 45 212 -58 264 -79 40 -152 23 -215 -50 l-36 -43 -222 -5 -221 -5 -178 -205 c-98 -113 -183 -204 -190 -203 -7 1 -40 11 -73 23 -142 52 -322 -5 -406 -127 -15 -22 -16 -22 -75 35 -47 46 -73 62 -127 80 -101 33 -175 27 -288 -22 -13 -6 -60 43 -205 208 l-189 216 -220 0 -221 0 -18 30 c-35 59 -116 95 -183 80z m1312 -628 c52 -27 89 -66 114 -123 20 -45 21 -65 21 -797 1 -621 -1 -756 -13 -784 -80 -190 -352 -198 -450 -13 -28 53 -30 164 -3 215 34 66 109 130 150 130 9 0 22 -13 31 -30 34 -66 138 -160 177 -160 22 0 58 34 58 55 0 9 -11 26 -24 38 -13 12 -40 38 -61 57 -78 73 -111 194 -81 295 8 28 20 69 27 92 12 38 11 44 -6 63 -23 25 -57 26 -78 2 -28 -31 -58 -133 -64 -218 l-6 -80 -64 -33 c-94 -49 -150 -120 -177 -223 -13 -51 -15 -53 -45 -51 -51 2 -106 47 -131 106 -19 43 -22 64 -18 132 9 156 92 243 219 228 41 -5 48 -3 59 17 26 48 -20 100 -88 100 -47 0 -126 -28 -170 -59 l-40 -30 -17 42 c-9 23 -19 71 -22 107 -6 69 12 184 28 175 5 -4 9 -46 9 -95 0 -83 2 -91 24 -105 17 -12 30 -13 49 -6 31 12 40 38 31 85 -13 74 47 150 169 212 38 20 47 29 47 51 0 33 -26 63 -55 63 -24 0 -128 -60 -166 -96 -14 -13 -28 -24 -32 -24 -10 0 -27 71 -27 115 0 54 44 138 99 186 24 21 49 39 56 39 7 0 20 -21 30 -47 22 -57 111 -150 170 -178 22 -10 60 -23 84 -30 37 -9 46 -16 55 -43 18 -54 63 -102 94 -102 56 0 68 46 28 105 -33 48 -41 108 -25 195 12 68 11 72 -9 93 -18 17 -26 19 -49 11 -28 -9 -39 -33 -57 -116 -8 -34 -28 -36 -76 -7 -56 34 -81 61 -106 114 -59 125 -7 270 121 332 41 20 61 23 110 20 34 -2 78 -13 100 -25z m610 9 c91 -41 140 -121 140 -226 0 -108 -49 -186 -144 -228 -48 -21 -61 -15 -61 31 0 36 -26 89 -50 102 -17 9 -26 8 -46 -5 -27 -17 -28 -32 -14 -119 12 -75 4 -127 -26 -172 -13 -19 -24 -46 -24 -59 0 -30 37 -57 67 -49 24 7 67 63 84 112 7 21 18 32 30 32 10 0 43 9 74 21 74 27 156 104 191 177 15 31 29 59 30 61 7 8 74 -42 96 -72 38 -50 68 -120 68 -158 0 -35 -17 -109 -25 -109 -3 0 -26 16 -52 36 -51 39 -135 84 -156 84 -24 0 -49 -36 -45 -67 2 -23 14 -34 63 -60 113 -59 162 -130 149 -214 -11 -64 51 -103 91 -59 15 17 18 36 17 105 0 47 3 85 8 85 4 0 14 -32 20 -70 13 -76 7 -152 -17 -212 l-15 -37 -46 30 c-89 56 -195 67 -237 24 -30 -30 -31 -49 -4 -76 16 -16 28 -20 55 -15 120 23 215 -81 216 -238 0 -112 -36 -180 -117 -217 -56 -26 -62 -24 -70 19 -19 102 -114 221 -210 262 l-45 19 0 65 c0 77 -40 214 -70 241 -16 15 -26 17 -47 9 -46 -16 -49 -34 -20 -122 31 -93 34 -156 11 -233 -13 -44 -29 -66 -85 -121 -69 -68 -83 -100 -57 -126 7 -7 27 -12 45 -12 25 0 43 11 86 53 29 28 66 71 80 95 l27 42 38 -15 c49 -20 115 -92 130 -142 41 -138 -28 -275 -161 -319 -87 -29 -187 -2 -254 68 -66 68 -63 30 -63 858 0 815 -2 781 55 856 13 18 48 44 77 58 64 32 152 35 213 7z"/></g></svg>